<svg clip-rule="evenodd" fill-rule="evenodd" height="1.33487in" image-rendering="optimizeQuality" shape-rendering="geometricPrecision" text-rendering="geometricPrecision" viewBox="0 0 158 202" width="1.04359in" xmlns="http://www.w3.org/2000/svg"><g fill-rule="nonzero"><path d="m35 147c0 11-8 19-18 19-9 0-17-8-17-19 0-10 4-19 14-19 9 0 21 9 21 19z" fill="#dd8557"/><path d="m123 147c0 11 8 19 18 19 9 0 17-8 17-19 0-10-4-19-14-19-9 0-21 9-21 19z" fill="#dd8557"/><g fill="#cd744d"><path d="m139 139c2-1 5-1 8 1 2 1 2 3 3 6 1 1 3 0 3-1 1-3-2-7-5-8-3-2-7-2-10 0-1 1 0 2 1 2z"/><path d="m20 138c-3-2-6-4-9-4s-6 2-7 4c0 2 1 2 2 1 4-3 8-2 13 0 0 0 1 0 1-1z"/><path d="m12 136c-2 3-2 6-1 10 1 2 3 6 6 6 0 0 1-1 1-1-1-3-3-4-4-7-1-2-1-5-1-7 1-1 0-1-1-1z"/><path d="m144 138v8c-1 2-1 4-2 6 0 2 1 2 2 2 5-3 3-12 1-17-1 0-2 0-1 1z"/></g><path d="m107 194c-17 11-38 11-55 1v-1c-17-9-27-27-27-45v-54c0-30 24-54 54-54s54 24 54 54v54c0 19-10 36-26 45z" fill="#e99362"/><path d="m118 62s13-36-10-55c-22-19-129-7-83 127l2-14s1-54 22-66c21-13 54-10 69 8z"/><path d="m118 62s-32-16-57-4c-19 9-36 76-36 76s-7-109 47-106c39 2 46 34 46 34z"/><path d="m118 61s15-2 17 8c2 11-2 65-2 65s-22-40-15-73z"/><path d="m118 62c7-6 9-16 9-25h-1c-2 9-3 17-8 24z"/><path d="m8 74c2-10 8-19 14-27 7-8 13-15 21-22 14-11 33-21 51-14 0 0 1-1 0-1-5-9-17-7-24-6-11 2-21 8-29 15s-15 16-22 25c-6 9-11 19-12 30z"/><path d="m12 86c1-8 4-15 7-22s8-12 12-18c0-1-1-2-2-1-6 4-10 11-13 18-4 7-5 15-5 23 0 1 1 1 1 0z"/><path d="m117 63c-3 8-3 17-3 25s1 18 5 25c0 1 2 0 2-1-1-8-3-16-4-24s0-17 0-25c0-1 0-1 0 0z"/><path d="m114 59c-12-14-30-23-48-21 18 0 35 7 48 21z"/><path d="m104 56c-21-10-49-8-67 7 19-14 46-16 67-6z"/><path d="m119 119c0-8-6-14-14-14-7 0-14 6-14 14 0 7 7 14 14 14 8 0 14-7 14-14z" fill="#fff"/><path d="m114 119c0-5-4-9-9-9-4 0-8 4-8 9 0 4 4 8 8 8 5 0 9-4 9-8z" fill="#75706b"/><path d="m111 119c0-3-3-6-6-6s-5 3-5 6 2 5 5 5 6-2 6-5z"/><path d="m111 115c0-1-1-2-2-2s-1 1-1 2 0 1 1 1 2 0 2-1z" fill="#fff"/><path d="m68 119c0-8-6-14-14-14s-14 6-14 14c0 7 6 14 14 14s14-7 14-14z" fill="#fff"/><path d="m62 119c0-5-3-9-8-9s-9 4-9 9c0 4 4 8 9 8s8-4 8-8z" fill="#75706b"/><path d="m59 119c0-3-2-6-5-6s-6 3-6 6 3 5 6 5 5-2 5-5z"/><path d="m59 115c0-1 0-2-1-2s-2 1-2 2 1 1 2 1 1 0 1-1z" fill="#fff"/><path d="m89 88v14s4 3 8 3c5-1 20-4 30 5l-9-15s-25 0-29-7z"/><path d="m74 100s4-8 0-16l-1 9-3-10s-22-3-28 5l-8 17s20-25 40-5z"/><path d="m97 179c-21-18-37-7-38-6l-1-1c1-1 18-13 40 6z"/><path d="m97 175s3 4-1 5z"/><path d="m59 170s-3 1 1 4z"/><path d="m68 180s5 10 18 8l-1-4s-6 2-17-4z"/><path d="m72 156h1 1v1s0 0 0-1h-1c-1 0-1 0-1 0s0 0-1-1c1 2 2 3 3 3 2 1 5 4 6 4h1c1 0 4-3 6-4 1 0 2-1 3-3-1 1-1 1-1 1h-1-1v1s0 0 0-1h1 1c0-1 0-1 0-1h1c0-1 0-1 0-1-1-1-2-2-5 0-2 0-3 1-4 1h-1c-1 0-3-1-4-1-3-2-4-1-5 0v1h1zm1-2h1 1 1v1h1s1 1 1 1c1 0 2 1 2 1 1 0 2-1 3-1 0 0 0-1 1-1h1v-1h1 1 1c0 1-1 0-2 1-1 0-1 0-2 0 0 1-1 1-1 1s-1 1-1 1c-1 0-1 0-2 0s0 0-1 0c0 0-1-1-1-1s-1 0-1-1c-1 0-2 0-2 0-1-1-2 0-2-1z" fill="#cd7c52"/><path d="m75 154c1 1 2 2 2 2s0 0 0-1c0 1 1 1 1 1s1 1 1 1h1 2s1-1 1-1 1 0 1-1v1s1-1 2-2h1s0 0-1 0h-1v1c-1 0-1 0-1 0-1 0-1 1-1 1-1 0-2 1-3 1 0 0-1-1-2-1 0 0-1-1-1-1h-1v-1h-1s0 0-1 0z"/><path d="m70 154 1 1s0 0 0-1v-1s0 0 0-1v-1c0-1 0-1 0-1v1c-1 0-1 1-1 1v1z"/><path d="m90 155v-1h1v-1-1s-1-1-1-1c0-1 0-1 0-1v1 1 1 1z"/></g></svg>